<svg width="110" height="19" viewBox="0 0 110 19" fill="none" xmlns="http://www.w3.org/2000/svg">
<path d="M7.30078 14.2617H9.02344V18H0.960938V14.2617H2.68359V4.46484H0.960938V0.714844H9.02344V4.46484H7.30078V14.2617ZM18.8203 0.140625L27.1641 18H10.4648L18.8203 0.140625ZM18.8203 9.66797L16.5352 14.543H21.0938L18.8203 9.66797ZM32.8711 5.90625C32.8711 6.27344 32.9844 6.57812 33.2109 6.82031C33.4375 7.0625 33.7422 7.24609 34.125 7.37109C34.5078 7.48828 34.9453 7.58594 35.4375 7.66406C35.9375 7.74219 36.4609 7.82031 37.0078 7.89844C37.5625 7.96875 38.1133 8.05859 38.6602 8.16797C39.2148 8.27734 39.7383 8.44531 40.2305 8.67188C40.7305 8.89062 41.1719 9.16797 41.5547 9.50391C41.9375 9.83203 42.2422 10.2812 42.4688 10.8516C42.6953 11.4141 42.8086 12.0703 42.8086 12.8203C42.8086 14.5781 42.1719 15.9297 40.8984 16.875C39.6328 17.8203 37.8242 18.293 35.4727 18.293C33.1133 18.293 31.2969 17.793 30.0234 16.793C28.7578 15.793 28.125 14.3711 28.125 12.5273H32.7305C32.7305 13.1289 32.9688 13.5938 33.4453 13.9219C33.9219 14.2422 34.5977 14.4023 35.4727 14.4023C36.3477 14.4023 37.0195 14.2656 37.4883 13.9922C37.9648 13.7188 38.2031 13.3281 38.2031 12.8203C38.2031 12.4531 38.0898 12.1484 37.8633 11.9062C37.6367 11.6641 37.332 11.4844 36.9492 11.3672C36.5664 11.2422 36.125 11.1406 35.625 11.0625C35.1328 10.9844 34.6094 10.9102 34.0547 10.8398C33.5078 10.7617 32.957 10.668 32.4023 10.5586C31.8555 10.4492 31.332 10.2852 30.832 10.0664C30.3398 9.83984 29.9023 9.5625 29.5195 9.23438C29.1367 8.89844 28.832 8.44922 28.6055 7.88672C28.3789 7.31641 28.2656 6.65625 28.2656 5.90625C28.2656 4.15625 28.8867 2.80859 30.1289 1.86328C31.3789 0.910156 33.1602 0.433594 35.4727 0.433594C37.7852 0.433594 39.5625 0.933594 40.8047 1.93359C42.0469 2.92578 42.668 4.34375 42.668 6.1875H38.0625C38.0625 5.59375 37.8359 5.13672 37.3828 4.81641C36.9375 4.48828 36.3008 4.32422 35.4727 4.32422C34.6445 4.32422 34.0039 4.46484 33.5508 4.74609C33.0977 5.01953 32.8711 5.40625 32.8711 5.90625ZM53.1914 14.1094C53.9492 14.1094 54.6562 13.9453 55.3125 13.6172C55.9688 13.2891 56.5156 12.8398 56.9531 12.2695L60.2695 14.7891C59.4414 15.875 58.4062 16.7305 57.1641 17.3555C55.9297 17.9805 54.6055 18.293 53.1914 18.293C51.9805 18.293 50.8203 18.0586 49.7109 17.5898C48.6094 17.1211 47.6602 16.4883 46.8633 15.6914C46.0664 14.8945 45.4336 13.9453 44.9648 12.8438C44.4961 11.7344 44.2617 10.5742 44.2617 9.36328C44.2617 8.15234 44.4961 6.99609 44.9648 5.89453C45.4336 4.79297 46.0664 3.84375 46.8633 3.04688C47.6602 2.25 48.6094 1.61719 49.7109 1.14844C50.8203 0.671875 51.9805 0.433594 53.1914 0.433594C54.6055 0.433594 55.9297 0.746094 57.1641 1.37109C58.4062 1.99609 59.4414 2.85156 60.2695 3.9375L56.9531 6.48047C56.5156 5.89453 55.9688 5.4375 55.3125 5.10938C54.6562 4.77344 53.9492 4.60547 53.1914 4.60547C51.8867 4.60547 50.7656 5.07422 49.8281 6.01172C48.8984 6.94141 48.4336 8.05859 48.4336 9.36328C48.4336 10.668 48.8984 11.7852 49.8281 12.7148C50.7656 13.6445 51.8867 14.1094 53.1914 14.1094ZM69.0234 0.140625L77.3672 18H60.668L69.0234 0.140625ZM69.0234 9.66797L66.7383 14.543H71.2969L69.0234 9.66797ZM85.7812 0.714844C88.8125 0.714844 90.9844 1.15625 92.2969 2.03906C93.6172 2.92188 94.2773 4.37109 94.2773 6.38672C94.2773 8.41016 93.6211 9.85938 92.3086 10.7344C90.9961 11.6094 88.8203 12.0469 85.7812 12.0469H83.9062V18H79.3008V0.714844H85.7812ZM85.7812 8.30859C87.2344 8.30859 88.2461 8.16797 88.8164 7.88672C89.3867 7.60547 89.6719 7.10547 89.6719 6.38672C89.6719 5.66797 89.3867 5.16797 88.8164 4.88672C88.2461 4.60547 87.2344 4.46484 85.7812 4.46484H83.9062V8.30859H85.7812ZM100.805 14.2617H109.16V18H96.1992V0.714844H105.703V4.46484H100.805V7.48828H107.426V11.2266H100.805V14.2617Z" fill="white"/>
</svg>
