<svg width="32" height="32" viewBox="0 0 32 32" fill="none" xmlns="http://www.w3.org/2000/svg">
<g clip-path="url(#clip0_139_2317)">
<path d="M27.3337 14.6666H25.3337V9.33325C25.3337 7.86659 24.1337 6.66659 22.667 6.66659H17.3337V4.66659C17.3337 2.82659 15.8403 1.33325 14.0003 1.33325C12.1603 1.33325 10.667 2.82659 10.667 4.66659V6.66659H5.33366C3.86699 6.66659 2.68033 7.86659 2.68033 9.33325V14.3999H4.66699C6.65366 14.3999 8.26699 16.0133 8.26699 17.9999C8.26699 19.9866 6.65366 21.5999 4.66699 21.5999H2.66699V26.6666C2.66699 28.1333 3.86699 29.3333 5.33366 29.3333H10.4003V27.3333C10.4003 25.3466 12.0137 23.7333 14.0003 23.7333C15.987 23.7333 17.6003 25.3466 17.6003 27.3333V29.3333H22.667C24.1337 29.3333 25.3337 28.1333 25.3337 26.6666V21.3333H27.3337C29.1737 21.3333 30.667 19.8399 30.667 17.9999C30.667 16.1599 29.1737 14.6666 27.3337 14.6666Z" fill="#FF9900"/>
</g>
<defs>
<clipPath id="clip0_139_2317">
<rect width="32" height="32" fill="white"/>
</clipPath>
</defs>
</svg>
