<svg width="32" height="32" viewBox="0 0 32 32" fill="none" xmlns="http://www.w3.org/2000/svg">
<g clip-path="url(#clip0_139_2312)">
<path d="M21.6537 10.3467C20.0937 8.78675 18.0537 8.00008 16.0003 8.00008V16.0001L10.347 21.6534C13.467 24.7734 18.5337 24.7734 21.667 21.6534C24.787 18.5334 24.787 13.4667 21.6537 10.3467ZM16.0003 2.66675C8.64033 2.66675 2.66699 8.64008 2.66699 16.0001C2.66699 23.3601 8.64033 29.3334 16.0003 29.3334C23.3603 29.3334 29.3337 23.3601 29.3337 16.0001C29.3337 8.64008 23.3603 2.66675 16.0003 2.66675ZM16.0003 26.6667C10.107 26.6667 5.33366 21.8934 5.33366 16.0001C5.33366 10.1067 10.107 5.33341 16.0003 5.33341C21.8937 5.33341 26.667 10.1067 26.667 16.0001C26.667 21.8934 21.8937 26.6667 16.0003 26.6667Z" fill="#FF9900"/>
</g>
<defs>
<clipPath id="clip0_139_2312">
<rect width="32" height="32" fill="white"/>
</clipPath>
</defs>
</svg>
