<svg width="16" height="16" viewBox="0 0 16 16" fill="none" xmlns="http://www.w3.org/2000/svg">
<g clip-path="url(#clip0_44_3387)">
<path fill-rule="evenodd" clip-rule="evenodd" d="M13.3701 0.0105574H2.62983C2.41344 0.010553 2.19918 0.0533454 1.9994 0.136472C1.79961 0.219598 1.61824 0.341417 1.46571 0.494916C1.31319 0.648415 1.19253 0.830564 1.11069 1.03088C1.02884 1.23119 0.987416 1.44572 0.988803 1.6621V12.4866C0.988803 12.9218 1.1617 13.3392 1.46945 13.6469C1.7772 13.9547 2.1946 14.1276 2.62983 14.1276H11.7186L11.2978 12.6549L12.3498 13.6016L13.3175 14.4958L15.0427 16.0211V1.65158C15.0428 1.4334 14.9993 1.2174 14.9149 1.01621C14.8304 0.81503 14.7067 0.632704 14.551 0.479901C14.3952 0.327098 14.2106 0.206886 14.0078 0.126297C13.8051 0.0457088 13.5883 0.00636155 13.3701 0.0105574ZM10.2774 10.4668C10.2774 10.4668 9.98289 10.1197 9.75146 9.81463C10.3281 9.67797 10.8382 9.34282 11.1926 8.86789C10.9043 9.05616 10.5977 9.21476 10.2774 9.34126C9.90275 9.49884 9.51084 9.61182 9.10978 9.67788C8.41455 9.80839 7.70112 9.80839 7.0059 9.67788C6.60446 9.59412 6.21045 9.47803 5.82772 9.33074C5.62461 9.25489 5.42766 9.16345 5.23864 9.05724H5.17552L4.95461 8.92048C5.29782 9.38799 5.7921 9.72246 6.35369 9.86723C6.12227 10.1723 5.81721 10.53 5.81721 10.53C5.34142 10.543 4.86976 10.4385 4.44405 10.2256C4.01834 10.0128 3.65172 9.69817 3.37671 9.3097C3.4025 7.68849 3.79827 6.09458 4.53384 4.64961C5.17946 4.14361 5.96577 3.84967 6.78499 3.80806L6.85863 3.90273C6.08887 4.09539 5.37072 4.45446 4.75475 4.95467L5.22812 4.72325C5.80357 4.45798 6.41811 4.28748 7.04798 4.21832H7.18473C7.72288 4.1552 8.26656 4.1552 8.80471 4.21832C9.65127 4.30919 10.4707 4.5704 11.2137 4.98623C10.6296 4.49773 9.9483 4.13914 9.21497 3.93429L9.33068 3.80806C10.1499 3.84967 10.9362 4.14361 11.5818 4.64961C12.3174 6.09458 12.7132 7.68849 12.739 9.3097C12.461 9.69766 12.0923 10.0117 11.6651 10.2244C11.2379 10.4371 10.7651 10.542 10.2879 10.53L10.2774 10.4668ZM6.55356 6.73245C6.37641 6.71764 6.1989 6.7566 6.04424 6.84426C5.88958 6.93192 5.76495 7.06418 5.68664 7.22378C5.60834 7.38338 5.57999 7.56289 5.60531 7.73885C5.63063 7.91482 5.70844 8.07905 5.82856 8.2101C5.94869 8.34114 6.10555 8.43291 6.27865 8.47341C6.45175 8.5139 6.63304 8.50124 6.79884 8.43708C6.96463 8.37292 7.10722 8.26025 7.20796 8.11378C7.30871 7.96731 7.36294 7.79385 7.36356 7.61608C7.37213 7.3918 7.29188 7.1732 7.14022 7.00775C6.98855 6.8423 6.77774 6.74337 6.55356 6.73245ZM9.47795 6.73245C9.3008 6.71764 9.12329 6.7566 8.96863 6.84426C8.81397 6.93192 8.68934 7.06418 8.61104 7.22378C8.53273 7.38338 8.50438 7.56289 8.5297 7.73885C8.55502 7.91482 8.63283 8.07905 8.75295 8.2101C8.87308 8.34114 9.02994 8.43291 9.20304 8.47341C9.37614 8.5139 9.55744 8.50124 9.72323 8.43708C9.88902 8.37292 10.0316 8.26025 10.1324 8.11378C10.2331 7.96731 10.2873 7.79385 10.2879 7.61608C10.2936 7.50415 10.2771 7.39221 10.2395 7.28666C10.2018 7.1811 10.1437 7.08402 10.0685 7.00096C9.99322 6.9179 9.90233 6.8505 9.801 6.80262C9.69967 6.75474 9.5899 6.72732 9.47795 6.72193V6.73245Z" fill="#F9F9F9"/>
</g>
<defs>
<clipPath id="clip0_44_3387">
<rect width="16" height="16" fill="white"/>
</clipPath>
</defs>
</svg>
