<svg width="16" height="16" viewBox="0 0 16 16" fill="none" xmlns="http://www.w3.org/2000/svg">
<g clip-path="url(#clip0_44_3382)">
<path fill-rule="evenodd" clip-rule="evenodd" d="M16 8.04284C15.9894 6.51631 15.5423 5.02467 14.7115 3.74401C13.8806 2.46336 12.7007 1.44716 11.311 0.815391C9.92129 0.18362 8.37984 -0.0373452 6.86862 0.178581C5.3574 0.394507 3.93951 1.03831 2.78234 2.03398C1.62517 3.02965 0.777038 4.33563 0.338068 5.79772C-0.100903 7.25981 -0.112381 8.81697 0.304987 10.2854C0.722356 11.7538 1.55114 13.0721 2.69351 14.0847C3.83588 15.0974 5.24412 15.762 6.75199 16.0002V10.3788H4.72533V8.04284H6.75199V6.30418C6.69502 5.8862 6.73233 5.46077 6.86117 5.05908C6.99002 4.65739 7.20713 4.28964 7.4966 3.98278C7.78607 3.67593 8.14054 3.43775 8.53404 3.28572C8.92754 3.13369 9.35007 3.07166 9.77066 3.10418C10.3707 3.1122 10.9695 3.1621 11.5627 3.25351V5.23751H10.56C10.3869 5.21434 10.2107 5.23048 10.0447 5.28474C9.87863 5.339 9.72695 5.42997 9.60089 5.5509C9.47484 5.67183 9.37765 5.81961 9.31656 5.98326C9.25546 6.14691 9.23203 6.32222 9.24799 6.49618V8.00018H11.4667L11.1147 10.3362H9.24799V15.9575C11.1285 15.6518 12.8395 14.6884 14.076 13.2389C15.3125 11.7894 15.9944 9.94807 16 8.04284Z" fill="#F9F9F9"/>
</g>
<defs>
<clipPath id="clip0_44_3382">
<rect width="16" height="16" fill="white"/>
</clipPath>
</defs>
</svg>
