<svg width="16" height="16" viewBox="0 0 16 16" fill="none" xmlns="http://www.w3.org/2000/svg">
<g clip-path="url(#clip0_44_3375)">
<path fill-rule="evenodd" clip-rule="evenodd" d="M8.00002 3.95803C7.18392 3.95565 6.38544 4.19533 5.70556 4.64676C5.02567 5.09818 4.49492 5.74108 4.18041 6.49415C3.8659 7.24722 3.78177 8.07664 3.93865 8.87753C4.09553 9.67842 4.48638 10.4148 5.06177 10.9935C5.63716 11.5723 6.37125 11.9674 7.17121 12.129C7.97117 12.2905 8.80106 12.2112 9.55596 11.9011C10.3108 11.591 10.9568 11.064 11.4122 10.3868C11.8676 9.70954 12.1119 8.91247 12.1143 8.09637C12.1159 7.55449 12.0107 7.01761 11.8048 6.51638C11.5989 6.01515 11.2963 5.55938 10.9143 5.1751C10.5322 4.79082 10.0782 4.48555 9.57818 4.27672C9.07816 4.0679 8.5419 3.9596 8.00002 3.95803ZM8.00002 10.755C7.47182 10.755 6.95547 10.5984 6.51628 10.3049C6.07709 10.0115 5.73478 9.59437 5.53264 9.10636C5.3305 8.61836 5.27762 8.08138 5.38066 7.56332C5.48371 7.04526 5.73807 6.56939 6.11157 6.19589C6.48507 5.82239 6.96094 5.56803 7.479 5.46498C7.99706 5.36193 8.53405 5.41482 9.02205 5.61696C9.51005 5.81909 9.92715 6.1614 10.2206 6.60059C10.5141 7.03978 10.6707 7.55613 10.6707 8.08434C10.6723 8.4355 10.6043 8.78351 10.4707 9.10825C10.337 9.43299 10.1403 9.72803 9.89203 9.97634C9.64372 10.2247 9.34867 10.4213 9.02393 10.555C8.69919 10.6886 8.35119 10.7566 8.00002 10.755Z" fill="#FDFEFE"/>
<path fill-rule="evenodd" clip-rule="evenodd" d="M13.209 3.76563C13.209 3.95597 13.1525 4.14205 13.0468 4.30031C12.941 4.45858 12.7907 4.58193 12.6149 4.65478C12.439 4.72762 12.2455 4.74668 12.0588 4.70954C11.8721 4.67241 11.7007 4.58075 11.5661 4.44615C11.4315 4.31156 11.3398 4.14007 11.3027 3.95338C11.2655 3.7667 11.2846 3.57319 11.3574 3.39733C11.4303 3.22148 11.5536 3.07117 11.7119 2.96542C11.8702 2.85967 12.0562 2.80322 12.2466 2.80322C12.5018 2.80322 12.7466 2.90462 12.9271 3.0851C13.1076 3.26559 13.209 3.51038 13.209 3.76563Z" fill="#FDFEFE"/>
<path fill-rule="evenodd" clip-rule="evenodd" d="M8.00001 0.0602343H4.69174C4.02595 0.0758005 3.36737 0.201826 2.74287 0.433167C2.20869 0.63648 1.72454 0.952409 1.32332 1.35948C0.916247 1.7607 0.600318 2.24485 0.397005 2.77903C0.155129 3.4025 0.0130343 4.06019 -0.0240479 4.7279V11.3444C0.0116198 12.0123 0.153762 12.6703 0.397005 13.2933C0.600136 13.8311 0.915977 14.3192 1.32332 14.7249C1.7282 15.1245 2.21157 15.4358 2.74287 15.6392C3.36577 15.8762 4.02534 16.0024 4.69174 16.0121H11.3083C11.9592 15.993 12.602 15.8628 13.209 15.6272C13.745 15.433 14.2302 15.1205 14.6286 14.7129C15.0562 14.3166 15.3928 13.8323 15.615 13.2933C15.8451 12.6726 15.9711 12.0182 15.988 11.3565V4.7279C15.9724 4.06211 15.8464 3.40353 15.615 2.77903C15.4061 2.23114 15.0838 1.73358 14.6691 1.31894C14.2545 0.904308 13.7569 0.58196 13.209 0.373016C12.5772 0.160841 11.9146 0.0551407 11.2481 0.0602343C10.1661 0.114646 9.08204 0.114646 8.00001 0.0602343ZM8.00001 1.50384H11.2361C11.7453 1.51189 12.2496 1.60542 12.7278 1.78053C13.0753 1.91407 13.3908 2.11906 13.6539 2.38224C13.9171 2.64542 14.1221 2.96094 14.2557 3.30835C14.4319 3.78211 14.5255 4.28262 14.5323 4.78805V11.2723C14.5243 11.7815 14.4308 12.2858 14.2557 12.764C14.1221 13.1114 13.9171 13.4269 13.6539 13.6901C13.3908 13.9533 13.0753 14.1583 12.7278 14.2918C12.2489 14.463 11.7447 14.5525 11.2361 14.5565H4.78798C4.27942 14.5525 3.77514 14.463 3.29625 14.2918C2.94883 14.1583 2.63332 13.9533 2.37014 13.6901C2.10696 13.4269 1.90197 13.1114 1.76843 12.764C1.59332 12.2858 1.49979 11.7815 1.49174 11.2723V4.78805C1.49087 4.28402 1.57632 3.78355 1.74437 3.30835C1.87791 2.96094 2.0829 2.64542 2.34608 2.38224C2.60926 2.11906 2.92477 1.91407 3.27219 1.78053C3.75804 1.60275 4.27066 1.50918 4.78798 1.50384C5.60603 1.51587 5.85866 1.50384 8.00001 1.50384Z" fill="#FDFEFE"/>
</g>
<defs>
<clipPath id="clip0_44_3375">
<rect width="16" height="16" fill="white"/>
</clipPath>
</defs>
</svg>
