<svg width="16" height="16" viewBox="0 0 16 16" fill="none" xmlns="http://www.w3.org/2000/svg">
<path fill-rule="evenodd" clip-rule="evenodd" d="M5.02938 14.4979C6.25828 14.5068 7.47669 14.2713 8.61378 13.8052C9.75087 13.339 10.7839 12.6515 11.6529 11.7825C12.5219 10.9135 13.2095 9.88041 13.6756 8.74333C14.1418 7.60624 14.3772 6.38782 14.3683 5.15892V4.73661C15.0135 4.27405 15.5695 3.69848 16.0096 3.03775C15.4 3.30768 14.7526 3.48248 14.09 3.55605C14.7762 3.14611 15.291 2.50179 15.5393 1.74201C14.8918 2.11659 14.1887 2.38552 13.4565 2.53865C12.963 2.01048 12.309 1.65995 11.596 1.54147C10.8829 1.42299 10.1507 1.54318 9.51294 1.88339C8.87518 2.2236 8.36755 2.76481 8.06882 3.42302C7.77009 4.08123 7.69697 4.81964 7.86081 5.52365C6.56297 5.45692 5.29379 5.11726 4.1361 4.52684C2.9784 3.93642 1.95823 3.10851 1.14215 2.09714C0.721419 2.81867 0.594267 3.67437 0.787026 4.48706C0.974142 5.30279 1.46491 6.01664 2.15955 6.48346C1.63833 6.46325 1.12898 6.32195 0.671849 6.07074C0.668579 6.82871 0.929258 7.56417 1.40914 8.15088C1.88902 8.7376 2.55817 9.13897 3.30172 9.2861C2.82025 9.42026 2.31407 9.43998 1.82362 9.34369C2.03073 9.99557 2.43688 10.5662 2.98499 10.9754C3.54178 11.3866 4.21256 11.6146 4.9046 11.628C3.74223 12.5426 2.30441 13.0365 0.825418 13.0294C0.565443 13.0325 0.30559 13.0164 0.0479736 12.9814C1.54666 13.9491 3.29339 14.4624 5.07737 14.4595" fill="#F9F9F9"/>
</svg>
