<svg width="16" height="16" viewBox="0 0 16 16" fill="none" xmlns="http://www.w3.org/2000/svg">
<g clip-path="url(#clip0_44_3370)">
<path fill-rule="evenodd" clip-rule="evenodd" d="M14.2531 2.74487C14.5914 2.83562 14.8998 3.01376 15.1475 3.26142C15.3951 3.50907 15.5733 3.81751 15.664 4.15579C15.8982 5.42177 16.0075 6.70768 15.9904 7.99502C15.9978 9.28199 15.8886 10.567 15.664 11.8343C15.5715 12.1717 15.3928 12.4792 15.1454 12.7265C14.898 12.9739 14.5905 13.1527 14.2531 13.2452C12.1762 13.4872 10.086 13.5962 7.99517 13.5715C5.90379 13.5972 3.81307 13.4817 1.73722 13.226C1.39967 13.1369 1.09153 12.9605 0.843832 12.7145C0.596139 12.4685 0.417639 12.1616 0.326307 11.8247C-0.106572 9.28347 -0.106572 6.68737 0.326307 4.14619C0.418225 3.80745 0.596602 3.49841 0.843948 3.24938C1.09129 3.00035 1.39911 2.81988 1.73722 2.72567C3.81358 2.47659 5.90408 2.36437 7.99517 2.38974C10.0868 2.36683 12.1775 2.48548 14.2531 2.74487ZM10.5675 8.00462L6.40189 10.4041V5.6051L10.5675 8.00462Z" fill="#F9F9F9"/>
</g>
<defs>
<clipPath id="clip0_44_3370">
<rect width="16" height="16" fill="white"/>
</clipPath>
</defs>
</svg>
